<svg width="158" height="158" viewBox="0 0 158 158" fill="none" xmlns="http://www.w3.org/2000/svg">
<g clip-path="url(#clip0_233_567)">
<path d="M157.282 79.0312C157.282 113.79 134.836 143.303 103.652 153.875C103.236 154.017 102.815 154.154 102.401 154.29C101.31 154.637 100.214 154.959 99.105 155.262C99.0868 155.268 99.0624 155.274 99.0433 155.281C97.687 155.646 96.3186 155.981 94.931 156.278C89.5607 157.43 83.987 158.037 78.2761 158.037C77.6879 158.037 77.0996 158.031 76.5107 158.018C33.6946 157.077 -0.72998 122.077 -0.72998 79.0312C-0.72998 35.3968 34.6417 0.0251465 78.2761 0.0251465C112.812 0.0251465 142.169 22.186 152.909 53.0614C153.17 53.8043 153.418 54.5601 153.653 55.3152C153.752 55.6254 153.851 55.9408 153.944 56.2509C154.198 57.0929 154.433 57.9356 154.656 58.7898C154.935 59.8306 155.195 60.8775 155.425 61.9367C155.437 61.9923 155.449 62.0479 155.461 62.1035C156.657 67.5607 157.282 73.2213 157.282 79.0312Z" fill="#D92641"/>
<path d="M157.282 79.0312C157.282 113.79 134.836 143.303 103.652 153.875C103.236 154.017 102.815 154.154 102.401 154.29C101.31 154.637 100.214 154.959 99.1051 155.262L47.1097 122.554V112.736L43.9636 64.1913L78.2822 67.9874L102.202 61.1686L109.449 46.9603L120.331 35.5081L155.425 61.9366C155.437 61.9923 155.449 62.0479 155.461 62.1035C156.657 67.5607 157.282 73.2213 157.282 79.0312Z" fill="url(#paint0_linear_233_567)"/>
<path d="M16.5939 81.8118H26.4103V112.737H16.5939V81.8118Z" fill="white"/>
<path d="M26.4103 70.0317H36.2274V94.7383H26.4103V70.0317Z" fill="white"/>
<path d="M120.325 70.0317H130.142V100.957H120.325V70.0317Z" fill="white"/>
<path d="M130.142 88.0298H139.959V112.736H130.142V88.0298Z" fill="white"/>
<path d="M47.1097 112.737H68.6267V122.554H47.1097V112.737Z" fill="white"/>
<path d="M86.7057 112.737H108.223V122.554H86.7057V112.737Z" fill="white"/>
<path d="M47.1097 46.9602H57.992V58.4125H47.1097V46.9602Z" fill="white"/>
<path d="M36.2274 35.5081H47.1097V46.9603H36.2274V35.5081Z" fill="white"/>
<path d="M109.443 35.5081H120.325V46.9603H109.443V35.5081Z" fill="white"/>
<path d="M98.5663 46.9602H109.449V58.4125H98.5663V46.9602Z" fill="white"/>
<path d="M36.2274 58.4126V112.737H47.0045V102.92H108.352V112.737H120.325V58.4126H36.2274ZM57.9859 79.4396H47.1036V67.9874H57.9859V79.4396ZM109.443 79.4396H98.5602V67.9874H109.443V79.4396Z" fill="white"/>
</g>
<defs>
<linearGradient id="paint0_linear_233_567" x1="30.7093" y1="61.3257" x2="170.537" y2="129.445" gradientUnits="userSpaceOnUse">
<stop offset="0.0174586" stop-color="#1C0029"/>
<stop offset="1" stop-color="#D42540"/>
</linearGradient>
<clipPath id="clip0_233_567">
<rect width="158" height="158" fill="white"/>
</clipPath>
</defs>
</svg>
